<svg width="140" height="37" viewBox="0 0 140 37" fill="none" xmlns="http://www.w3.org/2000/svg">
<path fill-rule="evenodd" clip-rule="evenodd" d="M47.4609 30.6783C50.7582 30.6783 53.4312 28.0621 53.4312 24.8349C53.4312 21.6076 50.7582 18.9914 47.4609 18.9914C44.1636 18.9914 41.4907 21.6076 41.4907 24.8349C41.4907 28.0621 44.1636 30.6783 47.4609 30.6783ZM47.4609 36.5218C54.0555 36.5218 59.4015 31.2894 59.4015 24.8349C59.4015 18.3803 54.0555 13.1479 47.4609 13.1479C40.8664 13.1479 35.5204 18.3803 35.5204 24.8349C35.5204 31.2894 40.8664 36.5218 47.4609 36.5218Z" fill="#E54E11"/>
<path fill-rule="evenodd" clip-rule="evenodd" d="M74.3272 30.6783C77.6245 30.6783 80.2975 28.0621 80.2975 24.8349C80.2975 21.6076 77.6245 18.9914 74.3272 18.9914C71.0299 18.9914 68.357 21.6076 68.357 24.8349C68.357 28.0621 71.0299 30.6783 74.3272 30.6783ZM74.3272 36.5218C80.9218 36.5218 86.2678 31.2894 86.2678 24.8349C86.2678 18.3803 80.9218 13.1479 74.3272 13.1479C67.7327 13.1479 62.3867 18.3803 62.3867 24.8349C62.3867 31.2894 67.7327 36.5218 74.3272 36.5218Z" fill="#E54E11"/>
<path fill-rule="evenodd" clip-rule="evenodd" d="M101.193 30.6783C104.491 30.6783 107.164 28.0621 107.164 24.8349C107.164 21.6076 104.491 18.9914 101.193 18.9914C97.8959 18.9914 95.223 21.6076 95.223 24.8349C95.223 28.0621 97.8959 30.6783 101.193 30.6783ZM101.193 36.5218C107.788 36.5218 113.134 31.2894 113.134 24.8349C113.134 18.3803 107.788 13.1479 101.193 13.1479C94.5987 13.1479 89.2527 18.3803 89.2527 24.8349C89.2527 31.2894 94.5987 36.5218 101.193 36.5218Z" fill="#E54E11"/>
<rect x="89.2527" width="5.97027" height="24.8348" fill="#E54E11"/>
<path fill-rule="evenodd" clip-rule="evenodd" d="M128.06 30.6783C131.357 30.6783 134.03 28.0621 134.03 24.8349C134.03 21.6076 131.357 18.9914 128.06 18.9914C124.762 18.9914 122.089 21.6076 122.089 24.8349C122.089 28.0621 124.762 30.6783 128.06 30.6783ZM128.06 36.5218C134.654 36.5218 140 31.2894 140 24.8349C140 18.3803 134.654 13.1479 128.06 13.1479C121.465 13.1479 116.119 18.3803 116.119 24.8349C116.119 31.2894 121.465 36.5218 128.06 36.5218Z" fill="#E54E11"/>
<rect x="134.03" y="24.835" width="5.97029" height="11.687" fill="#E54E11"/>
<path d="M38.3149 9.92224C38.2005 9.92224 38.1038 9.88879 38.0246 9.82188C37.9542 9.74662 37.919 9.65462 37.919 9.54591V3.43679C37.919 3.31971 37.9542 3.22772 38.0246 3.16081C38.1038 3.09391 38.2005 3.06046 38.3149 3.06046C38.4381 3.06046 38.5348 3.09391 38.6052 3.16081C38.6756 3.22772 38.7108 3.31971 38.7108 3.43679V3.92602C38.9571 3.62496 39.2562 3.39079 39.6081 3.22354C39.9688 3.05628 40.3603 2.97265 40.7826 2.97265C41.3016 2.97265 41.7635 3.09391 42.1682 3.33643C42.5729 3.5706 42.8896 3.89675 43.1183 4.3149C43.3558 3.89675 43.6857 3.5706 44.108 3.33643C44.5303 3.09391 45.0053 2.97265 45.5332 2.97265C46.0698 2.97265 46.5405 3.09809 46.9452 3.34898C47.3499 3.59987 47.6666 3.94693 47.8953 4.39016C48.1328 4.8334 48.2516 5.34354 48.2516 5.92058V9.54591C48.2516 9.65462 48.2164 9.74662 48.146 9.82188C48.0756 9.88879 47.9789 9.92224 47.8557 9.92224C47.7413 9.92224 47.6446 9.88879 47.5654 9.82188C47.495 9.74662 47.4598 9.65462 47.4598 9.54591V5.92058C47.4598 5.27663 47.2795 4.74977 46.9188 4.33999C46.5669 3.9302 46.105 3.72531 45.5332 3.72531C44.9262 3.72531 44.4291 3.91766 44.042 4.30235C43.6637 4.67868 43.4834 5.18882 43.501 5.83277C43.501 5.85786 43.501 5.88713 43.501 5.92058V9.54591C43.501 9.65462 43.4658 9.74662 43.3954 9.82188C43.325 9.88879 43.2283 9.92224 43.1051 9.92224C42.9907 9.92224 42.894 9.88879 42.8148 9.82188C42.7444 9.74662 42.7092 9.65462 42.7092 9.54591V5.92058C42.7092 5.27663 42.5289 4.74977 42.1682 4.33999C41.8163 3.9302 41.3544 3.72531 40.7826 3.72531C40.1756 3.72531 39.6785 3.9093 39.2914 4.27726C38.9043 4.64523 38.7108 5.12192 38.7108 5.70732V9.54591C38.7108 9.65462 38.6756 9.74662 38.6052 9.82188C38.5348 9.88879 38.4381 9.92224 38.3149 9.92224Z" fill="#E54E11"/>
<path d="M53.7956 9.9975C53.0918 9.9975 52.4584 9.84697 51.8954 9.54591C51.3411 9.23648 50.9013 8.81833 50.5758 8.29147C50.259 7.75624 50.1007 7.15829 50.1007 6.49762C50.1007 5.82859 50.259 5.23064 50.5758 4.70377C50.9013 4.16855 51.3411 3.7504 51.8954 3.44933C52.4584 3.13991 53.0918 2.98519 53.7956 2.98519C54.4994 2.98519 55.1284 3.13991 55.6827 3.44933C56.2369 3.7504 56.6724 4.16855 56.9891 4.70377C57.3146 5.23064 57.4773 5.82859 57.4773 6.49762V9.54591C57.4773 9.65462 57.4421 9.74662 57.3718 9.82188C57.3014 9.88879 57.2046 9.92224 57.0814 9.92224C56.9671 9.92224 56.8703 9.88879 56.7911 9.82188C56.7208 9.74662 56.6856 9.65462 56.6856 9.54591V8.56744C56.3952 9.00232 55.9994 9.34938 55.4979 9.60863C54.9965 9.86788 54.429 9.9975 53.7956 9.9975ZM53.7956 9.29502C54.3498 9.29502 54.8425 9.17376 55.2736 8.93123C55.7134 8.68034 56.0565 8.34583 56.3029 7.92768C56.558 7.50117 56.6856 7.02448 56.6856 6.49762C56.6856 5.96239 56.558 5.48571 56.3029 5.06756C56.0565 4.64105 55.7134 4.30653 55.2736 4.06401C54.8425 3.81312 54.3498 3.68768 53.7956 3.68768C53.2502 3.68768 52.7575 3.81312 52.3176 4.06401C51.8778 4.30653 51.5303 4.64105 51.2752 5.06756C51.02 5.48571 50.8925 5.96239 50.8925 6.49762C50.8925 7.02448 51.02 7.50117 51.2752 7.92768C51.5303 8.34583 51.8778 8.68034 52.3176 8.93123C52.7575 9.17376 53.2502 9.29502 53.7956 9.29502Z" fill="#E54E11"/>
<path d="M59.8488 9.92224C59.7344 9.92224 59.6377 9.88879 59.5585 9.82188C59.4881 9.74662 59.4529 9.65462 59.4529 9.54591V3.43679C59.4529 3.31971 59.4881 3.22772 59.5585 3.16081C59.6377 3.09391 59.7344 3.06046 59.8488 3.06046C59.972 3.06046 60.0687 3.09391 60.1391 3.16081C60.2095 3.22772 60.2447 3.31971 60.2447 3.43679V4.21454C60.4998 3.82985 60.8209 3.52878 61.208 3.31135C61.6039 3.09391 62.0394 2.98519 62.5144 2.98519C62.8487 2.98519 63.1083 3.02283 63.293 3.09809C63.4777 3.17336 63.5481 3.30716 63.5041 3.49951C63.4777 3.62496 63.4162 3.70022 63.3194 3.72531C63.2226 3.7504 63.1039 3.75458 62.9631 3.73785C62.8311 3.71277 62.6816 3.70022 62.5144 3.70022C62.0746 3.70022 61.6831 3.78803 61.34 3.96365C60.9969 4.13928 60.7286 4.3818 60.535 4.69123C60.3415 4.99229 60.2447 5.33936 60.2447 5.73241V9.54591C60.2447 9.65462 60.2095 9.74662 60.1391 9.82188C60.0687 9.88879 59.972 9.92224 59.8488 9.92224Z" fill="#E54E11"/>
<path d="M65.635 9.92224C65.5206 9.92224 65.4239 9.88879 65.3447 9.82188C65.2743 9.74662 65.2391 9.65462 65.2391 9.54591V0.501404C65.2391 0.384323 65.2743 0.292331 65.3447 0.225427C65.4239 0.158524 65.5206 0.125072 65.635 0.125072C65.7582 0.125072 65.8549 0.158524 65.9253 0.225427C65.9957 0.292331 66.0309 0.384323 66.0309 0.501404V6.63561L70.1217 3.09809C70.2976 2.95592 70.4648 2.96428 70.6231 3.12318C70.7903 3.2988 70.7859 3.4577 70.6099 3.59987L67.8124 6.02093L70.6891 9.37028C70.8387 9.54591 70.8211 9.70898 70.6363 9.85952C70.4516 10.01 70.28 9.99332 70.1217 9.80934L67.2581 6.48507L66.0309 7.55135V9.54591C66.0309 9.65462 65.9957 9.74662 65.9253 9.82188C65.8549 9.88879 65.7582 9.92224 65.635 9.92224Z" fill="#E54E11"/>
<path d="M75.3528 9.98496C74.6578 9.98496 74.0376 9.83861 73.4922 9.54591C72.9555 9.24484 72.5332 8.83088 72.2253 8.30401C71.9174 7.77715 71.7635 7.17502 71.7635 6.49762C71.7635 5.81186 71.9086 5.20973 72.1989 4.69123C72.4893 4.16436 72.8895 3.7504 73.3998 3.44933C73.91 3.14827 74.4951 2.99774 75.1549 2.99774C75.8059 2.99774 76.3821 3.14409 76.8836 3.43679C77.385 3.72113 77.7765 4.11837 78.058 4.62851C78.3395 5.13028 78.4803 5.71151 78.4803 6.37218C78.4803 6.48089 78.4451 6.5687 78.3747 6.63561C78.3043 6.69415 78.212 6.72342 78.0976 6.72342H72.5684C72.5948 7.22519 72.7312 7.66843 72.9775 8.05312C73.2238 8.43782 73.5493 8.73888 73.954 8.95632C74.3675 9.17375 74.8338 9.28247 75.3528 9.28247C75.6959 9.28247 76.039 9.22811 76.3821 9.1194C76.734 9.00231 77.0111 8.85178 77.2135 8.6678C77.2838 8.60089 77.3674 8.56744 77.4642 8.56744C77.5698 8.55908 77.6577 8.58417 77.7281 8.64271C77.8249 8.71798 77.8733 8.80161 77.8733 8.8936C77.8821 8.98559 77.8425 9.06922 77.7545 9.14449C77.473 9.38701 77.1035 9.58772 76.646 9.74662C76.1974 9.90551 75.7663 9.98496 75.3528 9.98496ZM75.1549 3.70022C74.6974 3.70022 74.2839 3.80058 73.9144 4.00129C73.5449 4.202 73.2414 4.48216 73.0039 4.84176C72.7752 5.193 72.6344 5.60279 72.5816 6.07111H77.7149C77.6533 5.36862 77.3894 4.79995 76.9232 4.36507C76.4569 3.92184 75.8675 3.70022 75.1549 3.70022Z" fill="#E54E11"/>
<path d="M83.1567 9.92224C82.6728 9.91387 82.2417 9.80934 81.8634 9.60863C81.4852 9.39955 81.1904 9.11522 80.9793 8.75561C80.7682 8.38764 80.6626 7.97368 80.6626 7.51371V3.98874H79.6333C79.5277 3.98874 79.4398 3.95947 79.3694 3.90093C79.3078 3.83403 79.277 3.7504 79.277 3.65004C79.277 3.54969 79.3078 3.47024 79.3694 3.4117C79.4398 3.3448 79.5277 3.31135 79.6333 3.31135H80.6626V1.26661C80.6626 1.14953 80.6978 1.05754 80.7682 0.990635C80.8474 0.915369 80.9441 0.877736 81.0585 0.877736C81.1816 0.877736 81.2784 0.915369 81.3488 0.990635C81.428 1.05754 81.4676 1.14953 81.4676 1.26661V3.31135H83.2095C83.315 3.31135 83.3986 3.3448 83.4602 3.4117C83.5306 3.47024 83.5658 3.54969 83.5658 3.65004C83.5658 3.7504 83.5306 3.83403 83.4602 3.90093C83.3986 3.95947 83.315 3.98874 83.2095 3.98874H81.4676V7.51371C81.4676 7.99876 81.6259 8.396 81.9426 8.70543C82.2593 9.0065 82.6684 9.15703 83.1699 9.15703H83.4602C83.5833 9.15703 83.6801 9.19466 83.7505 9.26993C83.8297 9.33683 83.8693 9.42882 83.8693 9.54591C83.8693 9.65462 83.8297 9.74662 83.7505 9.82188C83.6801 9.88879 83.5833 9.92224 83.4602 9.92224H83.1567Z" fill="#E54E11"/>
<path fill-rule="evenodd" clip-rule="evenodd" d="M37.9353 9.91174L37.9303 9.90631C37.8368 9.80639 37.7912 9.68363 37.7912 9.5459V3.43678C37.7912 3.29383 37.8351 3.16655 37.9355 3.07109L37.9382 3.06854L37.941 3.06614C38.0456 2.97774 38.1729 2.93538 38.3148 2.93538C38.4623 2.93538 38.5942 2.97609 38.6942 3.07109C38.7946 3.16655 38.8385 3.29383 38.8385 3.43678V3.60155C39.0474 3.40146 39.2855 3.23783 39.5522 3.11103L39.5533 3.1105C39.9321 2.93485 40.3424 2.84757 40.7825 2.84757C41.3225 2.84757 41.8076 2.97392 42.234 3.22926C42.5971 3.43952 42.8927 3.72051 43.1203 4.07058C43.3572 3.71946 43.6655 3.4382 44.0441 3.22808C44.4873 2.97374 44.9847 2.84757 45.5331 2.84757C46.091 2.84757 46.5859 2.97827 47.0135 3.24332C47.4385 3.50685 47.7704 3.87116 48.0088 4.3329C48.257 4.79643 48.3793 5.32676 48.3793 5.92057V9.5459C48.3793 9.68363 48.3336 9.80639 48.2402 9.90631L48.2377 9.90903L48.235 9.91159C48.135 10.0066 48.0031 10.0473 47.8556 10.0473C47.7137 10.0473 47.5864 10.0049 47.4818 9.91654L47.4761 9.91174L47.4711 9.90631C47.3776 9.80639 47.332 9.68363 47.332 9.5459V5.92057C47.332 5.3006 47.1589 4.80453 46.8219 4.42161L46.8209 4.42045C46.4945 4.04039 46.0692 3.85037 45.5331 3.85037C44.9566 3.85037 44.4936 4.03178 44.133 4.39006C43.7843 4.737 43.6118 5.21143 43.6286 5.82942L43.6287 5.83109V9.5459C43.6287 9.68363 43.583 9.80639 43.4896 9.90631L43.4871 9.90903L43.4844 9.91159C43.3844 10.0066 43.2525 10.0473 43.105 10.0473C42.9631 10.0473 42.8358 10.0049 42.7312 9.91654L42.7255 9.91174L42.7205 9.90631C42.627 9.80639 42.5814 9.68363 42.5814 9.5459V5.92057C42.5814 5.3006 42.4083 4.80453 42.0713 4.42161L42.0703 4.42045C41.7439 4.04039 41.3186 3.85037 40.7825 3.85037C40.2042 3.85037 39.7406 4.02458 39.3804 4.36697C39.0209 4.70872 38.8385 5.15168 38.8385 5.70732V9.5459C38.8385 9.68363 38.7929 9.80639 38.6994 9.90631L38.6969 9.90903L38.6942 9.91159C38.5942 10.0066 38.4623 10.0473 38.3148 10.0473C38.1729 10.0473 38.0456 10.0049 37.941 9.91654L37.9353 9.91174ZM47.8952 4.39016C47.6665 3.94692 47.3498 3.59986 46.9451 3.34897C46.5404 3.09808 46.0698 2.97264 45.5331 2.97264C45.0053 2.97264 44.5302 3.0939 44.1079 3.33643C43.7287 3.54673 43.4239 3.83124 43.1937 4.18995C43.1676 4.23064 43.1424 4.27229 43.1182 4.31489C43.0947 4.27187 43.0702 4.22982 43.0448 4.18875C42.8234 3.8306 42.5312 3.5465 42.1681 3.33643C41.7634 3.0939 41.3016 2.97264 40.7825 2.97264C40.3602 2.97264 39.9688 3.05627 39.6081 3.22353C39.3149 3.36286 39.0584 3.54863 38.8385 3.78083C38.7944 3.82736 38.7518 3.87575 38.7107 3.92601V3.43678C38.7107 3.3197 38.6755 3.22771 38.6052 3.16081C38.5348 3.0939 38.438 3.06045 38.3148 3.06045C38.2005 3.06045 38.1037 3.0939 38.0245 3.16081C37.9541 3.22771 37.919 3.3197 37.919 3.43678V9.5459C37.919 9.65462 37.9541 9.74661 38.0245 9.82187C38.1037 9.88878 38.2005 9.92223 38.3148 9.92223C38.438 9.92223 38.5348 9.88878 38.6052 9.82187C38.6755 9.74661 38.7107 9.65462 38.7107 9.5459V5.70732C38.7107 5.12191 38.9043 4.64523 39.2914 4.27726C39.6784 3.90929 40.1755 3.7253 40.7825 3.7253C41.3543 3.7253 41.8162 3.9302 42.1681 4.33998C42.5288 4.74976 42.7091 5.27663 42.7091 5.92057V9.5459C42.7091 9.65462 42.7443 9.74661 42.8147 9.82187C42.8939 9.88878 42.9907 9.92223 43.105 9.92223C43.2282 9.92223 43.325 9.88878 43.3953 9.82187C43.4657 9.74661 43.5009 9.65462 43.5009 9.5459V5.83276C43.4833 5.18882 43.6637 4.67868 44.042 4.30235C44.429 3.91765 44.9261 3.7253 45.5331 3.7253C46.1049 3.7253 46.5668 3.9302 46.9187 4.33998C47.2794 4.74976 47.4598 5.27663 47.4598 5.92057V9.5459C47.4598 9.65462 47.4949 9.74661 47.5653 9.82187C47.6445 9.88878 47.7413 9.92223 47.8556 9.92223C47.9788 9.92223 48.0756 9.88878 48.1459 9.82187C48.2163 9.74661 48.2515 9.65462 48.2515 9.5459V5.92057C48.2515 5.34353 48.1328 4.83339 47.8952 4.39016ZM51.833 9.6551L51.832 9.65453C51.2591 9.3347 50.8033 8.90155 50.4663 8.35617L50.4657 8.35516L50.4651 8.35414C50.1364 7.79856 49.9728 7.17874 49.9728 6.49761C49.9728 5.80845 50.1362 5.18822 50.4655 4.64035L50.4659 4.63979C50.8028 4.08573 51.2591 3.65193 51.833 3.3401C52.4168 3.01936 53.072 2.86012 53.7955 2.86012C54.5189 2.86012 55.1699 3.01929 55.7452 3.34033C56.319 3.65212 56.7708 4.0859 57.099 4.64005C57.4371 5.18788 57.605 5.80823 57.605 6.49761V9.5459C57.605 9.68363 57.5594 9.80639 57.4659 9.90631L57.4634 9.90903L57.4607 9.91159C57.3608 10.0066 57.2289 10.0473 57.0814 10.0473C56.9394 10.0473 56.8122 10.0049 56.7076 9.91654L56.7019 9.91174L56.6968 9.90631C56.6034 9.80639 56.5577 9.68363 56.5577 9.5459V8.94392C56.2871 9.25619 55.9533 9.5146 55.5575 9.71921C55.0356 9.98903 54.4473 10.1226 53.7955 10.1226C53.0725 10.1226 52.4176 9.96772 51.834 9.65565L51.833 9.6551ZM56.5577 8.74446C56.2826 9.09751 55.9293 9.38557 55.4978 9.60862C54.9964 9.86787 54.4289 9.99749 53.7955 9.99749C53.0917 9.99749 52.4583 9.84696 51.8953 9.5459C51.3411 9.23647 50.9012 8.81832 50.5757 8.29146C50.259 7.75623 50.1006 7.15828 50.1006 6.49761C50.1006 5.82858 50.259 5.23063 50.5757 4.70377C50.9012 4.16854 51.3411 3.75039 51.8953 3.44933C52.4583 3.1399 53.0917 2.98519 53.7955 2.98519C54.4993 2.98519 55.1283 3.1399 55.6826 3.44933C56.2368 3.75039 56.6723 4.16854 56.989 4.70377C57.3145 5.23063 57.4773 5.82858 57.4773 6.49761V9.5459C57.4773 9.65462 57.4421 9.74661 57.3717 9.82187C57.3013 9.88878 57.2045 9.92223 57.0814 9.92223C56.967 9.92223 56.8702 9.88878 56.7911 9.82187C56.7207 9.74661 56.6855 9.65462 56.6855 9.5459V8.56744C56.645 8.62815 56.6024 8.68716 56.5577 8.74446ZM56.1921 7.8652L56.1925 7.86448C56.4354 7.45841 56.5577 7.00379 56.5577 6.49761C56.5577 5.98266 56.4352 5.52855 56.1931 5.13168L56.1923 5.13039L56.1916 5.1291C55.9568 4.72261 55.6306 4.40441 55.2108 4.17297L55.2095 4.17225L55.2082 4.1715C54.7989 3.93329 54.3293 3.81274 53.7955 3.81274C53.271 3.81274 52.8009 3.93311 52.3819 4.17206L52.3811 4.17252L52.3803 4.17297C51.9601 4.40462 51.629 4.72334 51.3853 5.13074L51.3848 5.13168C51.1426 5.52855 51.0202 5.98266 51.0202 6.49761C51.0202 7.0036 51.1424 7.45807 51.3851 7.86402C51.6287 8.26309 51.96 8.58236 52.3811 8.8227C52.8001 9.05353 53.2706 9.16994 53.7955 9.16994C54.3299 9.16994 54.8 9.05327 55.2095 8.82298C55.6306 8.58273 55.9573 8.26373 56.1921 7.8652ZM55.2735 8.93122C54.8424 9.17375 54.3498 9.29501 53.7955 9.29501C53.2501 9.29501 52.7574 9.17375 52.3176 8.93122C51.8777 8.68034 51.5302 8.34582 51.2751 7.92767C51.02 7.50116 50.8924 7.02448 50.8924 6.49761C50.8924 5.96239 51.02 5.4857 51.2751 5.06755C51.5302 4.64104 51.8777 4.30653 52.3176 4.064C52.7574 3.81311 53.2501 3.68767 53.7955 3.68767C54.3498 3.68767 54.8424 3.81311 55.2735 4.064C55.7134 4.30653 56.0565 4.64104 56.3028 5.06755C56.5579 5.4857 56.6855 5.96239 56.6855 6.49761C56.6855 7.02448 56.5579 7.50116 56.3028 7.92767C56.0565 8.34582 55.7134 8.68034 55.2735 8.93122ZM59.4692 9.91174L59.4642 9.90631C59.3707 9.80639 59.3251 9.68363 59.3251 9.5459V3.43678C59.3251 3.29383 59.369 3.16655 59.4694 3.07109L59.4721 3.06854L59.4749 3.06614C59.5795 2.97774 59.7068 2.93538 59.8487 2.93538C59.9962 2.93538 60.1281 2.97609 60.2281 3.07109C60.3285 3.16655 60.3724 3.29383 60.3724 3.43678V3.83549C60.5929 3.57921 60.8503 3.36805 61.1443 3.20287L61.1454 3.20227C61.5613 2.97385 62.0185 2.86012 62.5144 2.86012C62.8557 2.86012 63.1347 2.89815 63.342 2.98262C63.4537 3.02812 63.5452 3.09744 63.5979 3.19764C63.6504 3.29743 63.6552 3.41032 63.629 3.52574C63.5962 3.68036 63.5102 3.8052 63.352 3.8462C63.2345 3.87667 63.0983 3.87991 62.9476 3.862L62.9431 3.86147L62.9387 3.86062C62.8164 3.83737 62.6752 3.82528 62.5144 3.82528C62.0923 3.82528 61.7216 3.90941 61.3991 4.07447C61.0756 4.24009 60.8248 4.46727 60.6439 4.75652L60.6431 4.75783C60.4637 5.03688 60.3724 5.36036 60.3724 5.7324V9.5459C60.3724 9.68363 60.3268 9.80639 60.2333 9.90631L60.2308 9.90903L60.2281 9.91159C60.1281 10.0066 59.9962 10.0473 59.8487 10.0473C59.7068 10.0473 59.5795 10.0049 59.4749 9.91654L59.4692 9.91174ZM63.5041 3.4995C63.5481 3.30716 63.4777 3.17335 63.2929 3.09808C63.1082 3.02282 62.8487 2.98519 62.5144 2.98519C62.0393 2.98519 61.6038 3.0939 61.2079 3.31134C60.8829 3.49392 60.6044 3.73547 60.3724 4.03598C60.3281 4.09335 60.2855 4.15287 60.2446 4.21453V3.43678C60.2446 3.3197 60.2094 3.22771 60.1391 3.16081C60.0687 3.0939 59.9719 3.06045 59.8487 3.06045C59.7344 3.06045 59.6376 3.0939 59.5584 3.16081C59.488 3.22771 59.4529 3.3197 59.4529 3.43678V9.5459C59.4529 9.65462 59.488 9.74661 59.5584 9.82187C59.6376 9.88878 59.7344 9.92223 59.8487 9.92223C59.9719 9.92223 60.0687 9.88878 60.1391 9.82187C60.2094 9.74661 60.2446 9.65462 60.2446 9.5459V5.7324C60.2446 5.33935 60.3414 4.99229 60.5349 4.69122C60.7285 4.38179 60.9968 4.13927 61.3399 3.96365C61.683 3.78803 62.0745 3.70021 62.5144 3.70021C62.6815 3.70021 62.8311 3.71276 62.963 3.73785C63.1038 3.75457 63.2225 3.75039 63.3193 3.7253C63.4161 3.70022 63.4777 3.62495 63.5041 3.4995ZM65.2554 9.91174L65.2504 9.90631C65.1569 9.80639 65.1113 9.68363 65.1113 9.5459V0.501397C65.1113 0.358441 65.1552 0.231162 65.2556 0.135705L65.2583 0.13315L65.2611 0.130753C65.3657 0.0423555 65.493 0 65.6349 0C65.7824 0 65.9143 0.0407044 66.0143 0.135705C66.1147 0.231162 66.1586 0.358441 66.1586 0.501397V6.35821L70.0386 3.00297L70.0403 3.00164C70.1438 2.91796 70.2599 2.86655 70.3855 2.87283C70.5111 2.87911 70.621 2.94198 70.7145 3.03584L70.7156 3.03687L70.7166 3.03793C70.8115 3.13771 70.8763 3.25179 70.8729 3.37745C70.8693 3.50511 70.7965 3.61069 70.693 3.69489L67.9903 6.03382L70.7869 9.2898L70.7872 9.2902C70.8752 9.39353 70.9287 9.5108 70.9151 9.63743C70.9015 9.76314 70.8248 9.8686 70.718 9.95563C70.6099 10.0437 70.4878 10.0971 70.3564 10.0843C70.2256 10.0716 70.1154 9.99618 70.0239 9.88995C70.0239 9.88993 70.0239 9.88996 70.0239 9.88995L67.2449 6.66377L66.1586 7.60755V9.5459C66.1586 9.68363 66.1129 9.80639 66.0195 9.90631L66.017 9.90903L66.0143 9.91159C65.9143 10.0066 65.7824 10.0473 65.6349 10.0473C65.493 10.0473 65.3657 10.0049 65.2611 9.91654L65.2554 9.91174ZM66.0308 7.55134L67.2581 6.48507L70.1216 9.80933C70.28 9.99331 70.4515 10.01 70.6363 9.85951C70.821 9.70897 70.8386 9.5459 70.689 9.37028L67.8123 6.02093L70.6099 3.59986C70.7858 3.45769 70.7902 3.29879 70.6231 3.12317C70.4647 2.96428 70.2976 2.95591 70.1216 3.09808L66.0308 6.6356V0.501397C66.0308 0.384316 65.9956 0.292324 65.9252 0.225421C65.8549 0.158518 65.7581 0.125066 65.6349 0.125066C65.5206 0.125066 65.4238 0.158518 65.3446 0.225421C65.2742 0.292324 65.239 0.384316 65.239 0.501397V9.5459C65.239 9.65462 65.2742 9.74661 65.3446 9.82187C65.4238 9.88878 65.5206 9.92223 65.6349 9.92223C65.7581 9.92223 65.8549 9.88878 65.9252 9.82187C65.9956 9.74661 66.0308 9.65462 66.0308 9.5459V7.55134ZM73.4296 9.65499L73.4285 9.6544C72.8721 9.34224 72.4335 8.91223 72.1143 8.3661C71.7941 7.81821 71.6356 7.19421 71.6356 6.49761C71.6356 5.79437 71.7846 5.17105 72.0866 4.63144C72.3875 4.08561 72.8035 3.65508 73.3337 3.34222C73.866 3.02817 74.4743 2.87266 75.1548 2.87266C75.8258 2.87266 76.4249 3.02367 76.9482 3.32891C77.4701 3.62502 77.8779 4.03914 78.1702 4.56879C78.4634 5.09157 78.608 5.69392 78.608 6.37217C78.608 6.5098 78.5622 6.63166 78.4637 6.72532L78.4606 6.72821L78.4574 6.7309C78.3588 6.81291 78.2347 6.84848 78.0975 6.84848H72.7056C72.7463 7.27685 72.8736 7.65544 73.0857 7.9867C73.3204 8.35322 73.6296 8.63926 74.0148 8.84635C74.4077 9.05287 74.8527 9.1574 75.3527 9.1574C75.6815 9.1574 76.0111 9.10539 76.3418 9.00067C76.6812 8.88764 76.9403 8.7451 77.1255 8.57701C77.2179 8.48967 77.331 8.44361 77.4589 8.44239C77.5901 8.43304 77.7106 8.46488 77.8091 8.546C77.9235 8.6355 77.9989 8.74957 78.0009 8.88776C78.0122 9.02682 77.9477 9.14528 77.8385 9.23864C77.5419 9.49406 77.1573 9.70166 76.6892 9.8643C76.2288 10.0273 75.783 10.11 75.3527 10.11C74.6388 10.11 73.997 9.95951 73.4307 9.65556L73.4296 9.65499ZM76.646 9.74661C77.1034 9.58771 77.4729 9.387 77.7544 9.14448C77.8424 9.06921 77.882 8.98558 77.8732 8.89359C77.8732 8.8016 77.8248 8.71797 77.728 8.6427C77.6577 8.58416 77.5697 8.55907 77.4641 8.56744C77.3673 8.56744 77.2838 8.60089 77.2134 8.66779C77.011 8.85177 76.7339 9.00231 76.382 9.11939C76.0389 9.22811 75.6958 9.28246 75.3527 9.28246C74.8337 9.28246 74.3674 9.17375 73.9539 8.95631C73.5493 8.73888 73.2238 8.43781 72.9774 8.05312C72.7518 7.7007 72.6184 7.29915 72.5773 6.84848C72.5736 6.8072 72.5706 6.76551 72.5684 6.72341H78.0975C78.2119 6.72341 78.3043 6.69414 78.3746 6.6356C78.445 6.5687 78.4802 6.48089 78.4802 6.37217C78.4802 5.7115 78.3395 5.13027 78.0579 4.6285C77.7764 4.11836 77.3849 3.72112 76.8835 3.43678C76.382 3.14408 75.8058 2.99773 75.1548 2.99773C74.495 2.99773 73.91 3.14826 73.3997 3.44933C72.8895 3.75039 72.4892 4.16436 72.1989 4.69122C71.9086 5.20972 71.7634 5.81185 71.7634 6.49761C71.7634 7.17501 71.9173 7.77714 72.2253 8.304C72.5332 8.83087 72.9554 9.24483 73.4921 9.5459C74.0375 9.8386 74.6577 9.98495 75.3527 9.98495C75.7662 9.98495 76.1973 9.9055 76.646 9.74661ZM76.8349 4.45561L76.834 4.45479C76.394 4.0365 75.8376 3.82528 75.1548 3.82528C74.7172 3.82528 74.3253 3.92107 73.9764 4.11063C73.626 4.30098 73.3378 4.56656 73.1113 4.90945C72.9171 5.20784 72.7884 5.55266 72.7271 5.94604H77.5728C77.4931 5.33327 77.246 4.83898 76.8349 4.45561ZM77.7016 5.94604C77.7067 5.98724 77.7111 6.02893 77.7148 6.0711H72.5816C72.5863 6.02894 72.5918 5.98725 72.5979 5.94604C72.6604 5.52947 72.7957 5.16137 73.0038 4.84175C73.2414 4.48215 73.5449 4.20199 73.9144 4.00128C74.2839 3.80057 74.6973 3.70021 75.1548 3.70021C75.8674 3.70021 76.4568 3.92183 76.9231 4.36507C77.3613 4.77383 77.6208 5.30082 77.7016 5.94604ZM83.1555 10.0473L83.1543 10.0473C82.6526 10.0386 82.2009 9.92998 81.8025 9.71857L81.8015 9.71805L81.8005 9.71752C81.4028 9.49771 81.0913 9.19749 80.8684 8.81792L80.8678 8.81684C80.645 8.42852 80.5347 7.99314 80.5347 7.51371V4.1138H79.6332C79.5019 4.1138 79.3833 4.07671 79.2866 3.99623L79.2801 3.99083L79.2744 3.98464C79.1892 3.89208 79.1492 3.7775 79.1492 3.65004C79.1492 3.52296 79.1892 3.40858 79.2803 3.32198C79.3764 3.23058 79.4972 3.18627 79.6332 3.18627H80.5347V1.2666C80.5347 1.12365 80.5786 0.996371 80.6791 0.900912C80.783 0.802081 80.9121 0.752663 81.0584 0.752663C81.2077 0.752663 81.3394 0.798703 81.4379 0.900804C81.5455 0.994564 81.5953 1.12149 81.5953 1.2666V3.18627H83.2094C83.3424 3.18627 83.4604 3.22888 83.5493 3.32184C83.6472 3.40641 83.6935 3.52034 83.6935 3.65004C83.6935 3.78249 83.6455 3.89903 83.5491 3.99064C83.4585 4.07682 83.3401 4.1138 83.2094 4.1138H81.5953V7.51371C81.5953 7.96916 81.7426 8.33309 82.0322 8.61635C82.3217 8.89119 82.6971 9.03195 83.1698 9.03195H83.4601C83.6094 9.03195 83.7411 9.078 83.8396 9.18012C83.9472 9.27388 83.997 9.40079 83.997 9.5459C83.997 9.68818 83.9436 9.8126 83.8394 9.91159C83.7395 10.0066 83.6076 10.0473 83.4601 10.0473H83.1555ZM83.7504 9.26992C83.68 9.19465 83.5833 9.15702 83.4601 9.15702H83.1698C82.6683 9.15702 82.2593 9.00649 81.9426 8.70542C81.6258 8.396 81.4675 7.99876 81.4675 7.51371V3.98874H83.2094C83.3149 3.98874 83.3985 3.95947 83.4601 3.90092C83.5305 3.83402 83.5657 3.75039 83.5657 3.65004C83.5657 3.54968 83.5305 3.47023 83.4601 3.41169C83.3985 3.34479 83.3149 3.31134 83.2094 3.31134H81.4675V1.2666C81.4675 1.14952 81.4279 1.05753 81.3487 0.990629C81.2783 0.915362 81.1816 0.877729 81.0584 0.877729C80.944 0.877729 80.8473 0.915362 80.7681 0.990629C80.6977 1.05753 80.6625 1.14952 80.6625 1.2666V3.31134H79.6332C79.5277 3.31134 79.4397 3.34479 79.3693 3.41169C79.3077 3.47023 79.2769 3.54968 79.2769 3.65004C79.2769 3.75039 79.3077 3.83402 79.3693 3.90092C79.4397 3.95947 79.5277 3.98874 79.6332 3.98874H80.6625V7.51371C80.6625 7.97367 80.7681 8.38763 80.9792 8.7556C81.1904 9.11521 81.4851 9.39955 81.8634 9.60862C82.2417 9.80933 82.6727 9.91387 83.1566 9.92223H83.4601C83.5833 9.92223 83.68 9.88878 83.7504 9.82187C83.8296 9.74661 83.8692 9.65462 83.8692 9.5459C83.8692 9.42882 83.8296 9.33682 83.7504 9.26992Z" fill="#E54E11"/>
<path fill-rule="evenodd" clip-rule="evenodd" d="M25.4092 10.413C25.4092 10.9653 25.8569 11.413 26.4092 11.413H31.3389C31.8912 11.413 32.3389 11.8608 32.3389 12.413V30.8152C32.3389 34.0251 29.7403 36.5217 26.5641 36.5217H5.77481C2.52648 36.5217 0 34.0251 0 30.8152V12.413C0 11.8608 0.447714 11.413 0.999999 11.413H5.92977C6.48206 11.413 6.92977 10.9653 6.92977 10.413V9.13043C6.92977 4.13723 11.0443 0 16.1695 0C21.2224 0 25.4092 4.13723 25.4092 9.13043V10.413ZM16.1695 4.56522C13.5708 4.56522 11.5496 6.63383 11.5496 9.13043V10.413C11.5496 10.9653 11.9973 11.413 12.5496 11.413H19.7893C20.3416 11.413 20.7893 10.9653 20.7893 10.413V9.13043C20.7893 6.63383 18.6959 4.56522 16.1695 4.56522Z" fill="#E54E11"/>
<rect x="6.06848" y="16.2319" width="19.0717" height="17.0435" fill="white"/>
<path fill-rule="evenodd" clip-rule="evenodd" d="M2.58572 35.0609H24.8538C26.2805 35.0609 27.5544 33.9202 27.7074 32.5314L29.9494 13.6348H7.68138C6.25459 13.6348 4.98068 14.7755 4.82781 16.1642L2.58572 35.0609ZM16.2931 31.2914H22.9684L23.478 27.6708C23.7328 25.8853 22.4078 24.447 20.5734 24.447C18.739 24.447 17.0574 25.8853 16.8026 27.6708L16.2931 31.2914ZM12.5732 24.3974C13.5414 24.3974 14.3567 25.191 14.3567 26.1333C14.3567 26.9268 13.7962 27.5717 13.0318 27.77C12.9809 27.8196 12.9299 27.8196 12.9299 27.8692C12.9299 27.9188 12.9809 27.9188 13.0318 27.9684C13.6943 28.2164 14.2038 28.8612 14.2038 29.6052C14.2038 30.4483 13.5414 31.1923 12.6752 31.2914H12.4204H10.2292H7.12085L7.8852 24.447H12.5732V24.3974ZM20.9811 16.6106C23.2742 16.4618 25.1595 17.8506 25.1595 19.7353C25.1595 21.62 23.2742 23.3063 20.9811 23.4551C18.688 23.6039 16.8026 22.2151 16.8026 20.3304C16.8026 18.3961 18.688 16.7594 20.9811 16.6106ZM11.656 16.6602C13.9491 16.5114 15.8345 17.9001 15.8345 19.7849C15.8345 21.6695 13.9491 23.3559 11.656 23.5047C9.36295 23.6535 7.47756 22.2647 7.47756 20.38C7.47756 18.4953 9.36295 16.809 11.656 16.6602Z" fill="#E54E11"/>
</svg>
